<svg xmlns="http://www.w3.org/2000/svg" width="26" height="28" viewBox="0 0 26 28">
  <g id="Group_105" data-name="Group 105" transform="translate(-3278 10613)">
    <g id="Group_104" data-name="Group 104" transform="translate(3275 -10615)">
      <g id="Group_103" data-name="Group 103">
        <path id="Path_1099" data-name="Path 1099" d="M27,6.126a4,4,0,0,1,0,7.748V28a1,1,0,1,1-2,0V13.874a4,4,0,0,1,0-7.748V4a1,1,0,1,1,2,0ZM15,25.874a4,4,0,0,1,0-7.748V4a1,1,0,1,1,2,0V18.126a4,4,0,0,1,0,7.748V28a1,1,0,1,1-2,0ZM7,6.126a4,4,0,0,1,0,7.748V28a1,1,0,1,1-2,0V13.874A4,4,0,0,1,5,6.126V4A1,1,0,1,1,7,4ZM6,12a2,2,0,1,0-2-2A2,2,0,0,0,6,12Zm10,8a2,2,0,1,0,2,2A2,2,0,0,0,16,20Zm10-8a2,2,0,1,0-2-2A2,2,0,0,0,26,12Z" transform="translate(32) rotate(90)" fill="#404040" fill-rule="evenodd"/>
      </g>
    </g>
  </g>
</svg>
